# xmcd
#
# Track frame offsets:
#	150
#	16535
#	34693
#	53016
#	77889
#	94653
#	110242
#	135183
#	154675
#	172297
#	185054
#	206418
#
# Disc length: 3037 seconds
#
# Revision: 1
# Processed by: cddbd v1.5.1PL2 Copyright (c) Steve Scherf et al.
# Submitted via: audiograbber 1.80
#
DISCID=960bdb0c
DTITLE=Gutiérrez Iván - Madera
DYEAR=1900
DGENRE=
TTITLE0=Al amar al sol
TTITLE1=Sin ella
TTITLE2=Sueòo desde un tren
TTITLE3=El Huracán
TTITLE4=Largo rato
TTITLE5=Torre de Babel
TTITLE6=Este lado dej jamás
TTITLE7=Cara en un sueòo
TTITLE8=Ángel del adios
TTITLE9=Flor de ser
TTITLE10=Desemboque
TTITLE11=El Forastero
EXTD=
EXTT0=
EXTT1=
EXTT2=
EXTT3=
EXTT4=
EXTT5=
EXTT6=
EXTT7=
EXTT8=
EXTT9=
EXTT10=
EXTT11=
PLAYORDER=
